<svg xmlns="http://www.w3.org/2000/svg" viewBox="0 0 760 330" font-family="sans-serif"><defs>
  <filter id="shadow" x="-5%" y="-5%" width="115%" height="115%"><feDropShadow dx="2" dy="2" stdDeviation="3" flood-color="#000" flood-opacity="0.35"/></filter>
  <linearGradient id="bg" x1="0" y1="0" x2="0" y2="1"><stop offset="0%" stop-color="#0f172a"/><stop offset="100%" stop-color="#1e293b"/></linearGradient>
  <marker id="arrow" viewBox="0 0 10 10" refX="9" refY="5" markerWidth="7" markerHeight="7" orient="auto-start-reverse"><path d="M 0 0 L 10 5 L 0 10 z" fill="#f59e0b"/></marker>
</defs><rect width="760" height="330" fill="url(#bg)" rx="12"/><text x="380.0" y="36" text-anchor="middle" fill="#f59e0b" font-size="20" font-weight="bold">AI Agent 工程师能力模型</text><text x="380.0" y="56" text-anchor="middle" fill="#94a3b8" font-size="12">四类能力与面试权重</text><rect x="55" y="105" width="150" height="170" rx="12" fill="#3b82f6" filter="url(#shadow)"/><text x="130.0" y="188.0" text-anchor="middle" fill="#f8fafc" font-size="14" font-weight="bold">基础理论</text><text x="130.0" y="208.0" text-anchor="middle" fill="#dbeafe" font-size="11">30% 权重</text><text x="130" y="215" text-anchor="middle" fill="#dbeafe" font-size="10">Transformer / LLM原理 / 训练微调 / 对齐技术</text><rect x="230" y="105" width="150" height="170" rx="12" fill="#10b981" filter="url(#shadow)"/><text x="305.0" y="188.0" text-anchor="middle" fill="#f8fafc" font-size="14" font-weight="bold">工程能力</text><text x="305.0" y="208.0" text-anchor="middle" fill="#d1fae5" font-size="11">30% 权重</text><text x="305" y="215" text-anchor="middle" fill="#d1fae5" font-size="10">RAG系统 / Agent框架 / 模型部署 / 工具链</text><rect x="405" y="105" width="150" height="170" rx="12" fill="#8b5cf6" filter="url(#shadow)"/><text x="480.0" y="188.0" text-anchor="middle" fill="#f8fafc" font-size="14" font-weight="bold">系统设计</text><text x="480.0" y="208.0" text-anchor="middle" fill="#ede9fe" font-size="11">25% 权重</text><text x="480" y="215" text-anchor="middle" fill="#ede9fe" font-size="10">Agent架构 / 高可用设计 / 性能优化 / 安全防护</text><rect x="580" y="105" width="150" height="170" rx="12" fill="#f59e0b" filter="url(#shadow)"/><text x="655.0" y="188.0" text-anchor="middle" fill="#1e293b" font-size="14" font-weight="bold">业务理解</text><text x="655.0" y="208.0" text-anchor="middle" fill="#78350f" font-size="11">15% 权重</text><text x="655" y="215" text-anchor="middle" fill="#78350f" font-size="10">场景分析 / 产品思维 / 数据飞轮 / ROI评估</text></svg>
