<svg xmlns="http://www.w3.org/2000/svg" viewBox="0 0 760 460" font-family="sans-serif"><defs>
  <filter id="shadow" x="-5%" y="-5%" width="115%" height="115%"><feDropShadow dx="2" dy="2" stdDeviation="3" flood-color="#000" flood-opacity="0.35"/></filter>
  <linearGradient id="bg" x1="0" y1="0" x2="0" y2="1"><stop offset="0%" stop-color="#0f172a"/><stop offset="100%" stop-color="#1e293b"/></linearGradient>
  <marker id="arrow" viewBox="0 0 10 10" refX="9" refY="5" markerWidth="7" markerHeight="7" orient="auto-start-reverse"><path d="M 0 0 L 10 5 L 0 10 z" fill="#f59e0b"/></marker>
</defs><rect width="760" height="460" fill="url(#bg)" rx="12"/><text x="380.0" y="36" text-anchor="middle" fill="#f59e0b" font-size="20" font-weight="bold">Agent Loop</text><text x="380.0" y="56" text-anchor="middle" fill="#94a3b8" font-size="12">感知 → 推理 → 行动 → 反思</text><rect x="305" y="80" width="150" height="50" rx="12" fill="#3b82f6" filter="url(#shadow)"/><text x="380.0" y="110.0" text-anchor="middle" fill="#f8fafc" font-size="14" font-weight="bold">感知 Perceive</text><rect x="520" y="210" width="150" height="50" rx="12" fill="#f59e0b" filter="url(#shadow)"/><text x="595.0" y="240.0" text-anchor="middle" fill="#1e293b" font-size="14" font-weight="bold">推理 Reason</text><rect x="305" y="340" width="150" height="50" rx="12" fill="#10b981" filter="url(#shadow)"/><text x="380.0" y="370.0" text-anchor="middle" fill="#f8fafc" font-size="14" font-weight="bold">行动 Act</text><rect x="90" y="210" width="150" height="50" rx="12" fill="#8b5cf6" filter="url(#shadow)"/><text x="165.0" y="240.0" text-anchor="middle" fill="#f8fafc" font-size="14" font-weight="bold">反思 Reflect</text><line x1="455" y1="105" x2="520" y2="228" stroke="#f59e0b" stroke-width="2.5" marker-end="url(#arrow)"/><line x1="595" y1="260" x2="455" y2="360" stroke="#f59e0b" stroke-width="2.5" marker-end="url(#arrow)"/><line x1="305" y1="365" x2="240" y2="238" stroke="#f59e0b" stroke-width="2.5" marker-end="url(#arrow)"/><line x1="165" y1="210" x2="305" y2="105" stroke="#f59e0b" stroke-width="2.5" marker-end="url(#arrow)"/></svg>
