<svg xmlns="http://www.w3.org/2000/svg" viewBox="0 0 900 416" font-family="sans-serif"><defs>
  <filter id="shadow" x="-5%" y="-5%" width="115%" height="115%"><feDropShadow dx="2" dy="2" stdDeviation="3" flood-color="#000" flood-opacity="0.35"/></filter>
  <linearGradient id="bg" x1="0" y1="0" x2="0" y2="1"><stop offset="0%" stop-color="#0f172a"/><stop offset="100%" stop-color="#1e293b"/></linearGradient>
  <marker id="arrow" viewBox="0 0 10 10" refX="9" refY="5" markerWidth="7" markerHeight="7" orient="auto-start-reverse"><path d="M 0 0 L 10 5 L 0 10 z" fill="#f59e0b"/></marker>
</defs><rect width="900" height="416" fill="url(#bg)" rx="12"/><text x="450.0" y="36" text-anchor="middle" fill="#f59e0b" font-size="20" font-weight="bold">DeepSpeed ZeRO 三阶段对比</text><text x="450.0" y="56" text-anchor="middle" fill="#94a3b8" font-size="12">优化器/梯度/参数分片与显存节省</text><rect x="40.0" y="82" width="199.0" height="38" rx="12" fill="#f59e0b" filter="url(#shadow)"/><text x="139.5" y="106.0" text-anchor="middle" fill="#1e293b" font-size="12" font-weight="bold">组件</text><rect x="245.0" y="82" width="199.0" height="38" rx="12" fill="#f59e0b" filter="url(#shadow)"/><text x="344.5" y="106.0" text-anchor="middle" fill="#1e293b" font-size="12" font-weight="bold">Stage 1</text><rect x="450.0" y="82" width="199.0" height="38" rx="12" fill="#f59e0b" filter="url(#shadow)"/><text x="549.5" y="106.0" text-anchor="middle" fill="#1e293b" font-size="12" font-weight="bold">Stage 2</text><rect x="655.0" y="82" width="199.0" height="38" rx="12" fill="#f59e0b" filter="url(#shadow)"/><text x="754.5" y="106.0" text-anchor="middle" fill="#1e293b" font-size="12" font-weight="bold">Stage 3</text><rect x="40.0" y="124" width="199.0" height="38" rx="12" fill="#3b82f6" filter="url(#shadow)"/><text x="139.5" y="148.0" text-anchor="middle" fill="#f8fafc" font-size="11" font-weight="bold">优化器状态</text><rect x="245.0" y="124" width="199.0" height="38" rx="12" fill="#3b82f6" filter="url(#shadow)"/><text x="344.5" y="148.0" text-anchor="middle" fill="#f8fafc" font-size="11" font-weight="bold">分片</text><rect x="450.0" y="124" width="199.0" height="38" rx="12" fill="#3b82f6" filter="url(#shadow)"/><text x="549.5" y="148.0" text-anchor="middle" fill="#f8fafc" font-size="11" font-weight="bold">分片</text><rect x="655.0" y="124" width="199.0" height="38" rx="12" fill="#3b82f6" filter="url(#shadow)"/><text x="754.5" y="148.0" text-anchor="middle" fill="#f8fafc" font-size="11" font-weight="bold">分片</text><rect x="40.0" y="166" width="199.0" height="38" rx="12" fill="#10b981" filter="url(#shadow)"/><text x="139.5" y="190.0" text-anchor="middle" fill="#f8fafc" font-size="11" font-weight="bold">梯度</text><rect x="245.0" y="166" width="199.0" height="38" rx="12" fill="#10b981" filter="url(#shadow)"/><text x="344.5" y="190.0" text-anchor="middle" fill="#f8fafc" font-size="11" font-weight="bold">全量</text><rect x="450.0" y="166" width="199.0" height="38" rx="12" fill="#10b981" filter="url(#shadow)"/><text x="549.5" y="190.0" text-anchor="middle" fill="#f8fafc" font-size="11" font-weight="bold">分片</text><rect x="655.0" y="166" width="199.0" height="38" rx="12" fill="#10b981" filter="url(#shadow)"/><text x="754.5" y="190.0" text-anchor="middle" fill="#f8fafc" font-size="11" font-weight="bold">分片</text><rect x="40.0" y="208" width="199.0" height="38" rx="12" fill="#8b5cf6" filter="url(#shadow)"/><text x="139.5" y="232.0" text-anchor="middle" fill="#f8fafc" font-size="11" font-weight="bold">模型参数</text><rect x="245.0" y="208" width="199.0" height="38" rx="12" fill="#8b5cf6" filter="url(#shadow)"/><text x="344.5" y="232.0" text-anchor="middle" fill="#f8fafc" font-size="11" font-weight="bold">全量</text><rect x="450.0" y="208" width="199.0" height="38" rx="12" fill="#8b5cf6" filter="url(#shadow)"/><text x="549.5" y="232.0" text-anchor="middle" fill="#f8fafc" font-size="11" font-weight="bold">全量</text><rect x="655.0" y="208" width="199.0" height="38" rx="12" fill="#8b5cf6" filter="url(#shadow)"/><text x="754.5" y="232.0" text-anchor="middle" fill="#f8fafc" font-size="11" font-weight="bold">分片</text><rect x="40.0" y="250" width="199.0" height="38" rx="12" fill="#06b6d4" filter="url(#shadow)"/><text x="139.5" y="274.0" text-anchor="middle" fill="#f8fafc" font-size="11" font-weight="bold">显存节省</text><rect x="245.0" y="250" width="199.0" height="38" rx="12" fill="#06b6d4" filter="url(#shadow)"/><text x="344.5" y="274.0" text-anchor="middle" fill="#f8fafc" font-size="11" font-weight="bold">~4x</text><rect x="450.0" y="250" width="199.0" height="38" rx="12" fill="#06b6d4" filter="url(#shadow)"/><text x="549.5" y="274.0" text-anchor="middle" fill="#f8fafc" font-size="11" font-weight="bold">~8x</text><rect x="655.0" y="250" width="199.0" height="38" rx="12" fill="#06b6d4" filter="url(#shadow)"/><text x="754.5" y="274.0" text-anchor="middle" fill="#f8fafc" font-size="11" font-weight="bold">线性</text><rect x="40.0" y="292" width="199.0" height="38" rx="12" fill="#ec4899" filter="url(#shadow)"/><text x="139.5" y="316.0" text-anchor="middle" fill="#f8fafc" font-size="11" font-weight="bold">通信开销</text><rect x="245.0" y="292" width="199.0" height="38" rx="12" fill="#ec4899" filter="url(#shadow)"/><text x="344.5" y="316.0" text-anchor="middle" fill="#f8fafc" font-size="11" font-weight="bold">低</text><rect x="450.0" y="292" width="199.0" height="38" rx="12" fill="#ec4899" filter="url(#shadow)"/><text x="549.5" y="316.0" text-anchor="middle" fill="#f8fafc" font-size="11" font-weight="bold">中</text><rect x="655.0" y="292" width="199.0" height="38" rx="12" fill="#ec4899" filter="url(#shadow)"/><text x="754.5" y="316.0" text-anchor="middle" fill="#f8fafc" font-size="11" font-weight="bold">高</text><rect x="40.0" y="334" width="199.0" height="38" rx="12" fill="#334155" filter="url(#shadow)"/><text x="139.5" y="358.0" text-anchor="middle" fill="#f8fafc" font-size="11" font-weight="bold">适用场景</text><rect x="245.0" y="334" width="199.0" height="38" rx="12" fill="#334155" filter="url(#shadow)"/><text x="344.5" y="358.0" text-anchor="middle" fill="#f8fafc" font-size="11" font-weight="bold">中小模型</text><rect x="450.0" y="334" width="199.0" height="38" rx="12" fill="#334155" filter="url(#shadow)"/><text x="549.5" y="358.0" text-anchor="middle" fill="#f8fafc" font-size="11" font-weight="bold">大模型</text><rect x="655.0" y="334" width="199.0" height="38" rx="12" fill="#334155" filter="url(#shadow)"/><text x="754.5" y="358.0" text-anchor="middle" fill="#f8fafc" font-size="11" font-weight="bold">超大模型</text></svg>
