<svg xmlns="http://www.w3.org/2000/svg" viewBox="0 0 760 460" font-family="sans-serif"><defs>
  <filter id="shadow" x="-5%" y="-5%" width="115%" height="115%"><feDropShadow dx="2" dy="2" stdDeviation="3" flood-color="#000" flood-opacity="0.35"/></filter>
  <linearGradient id="bg" x1="0" y1="0" x2="0" y2="1"><stop offset="0%" stop-color="#0f172a"/><stop offset="100%" stop-color="#1e293b"/></linearGradient>
  <marker id="arrow" viewBox="0 0 10 10" refX="9" refY="5" markerWidth="7" markerHeight="7" orient="auto-start-reverse"><path d="M 0 0 L 10 5 L 0 10 z" fill="#f59e0b"/></marker>
</defs><rect width="760" height="460" fill="url(#bg)" rx="12"/><text x="380.0" y="36" text-anchor="middle" fill="#f59e0b" font-size="20" font-weight="bold">Dify 平台能力总览</text><text x="380.0" y="56" text-anchor="middle" fill="#94a3b8" font-size="12">Chatbot、Workflow、Agent 与内置 RAG 能力</text><rect x="60" y="80" width="640" height="330" rx="14" fill="#1e293b" stroke="#f59e0b" stroke-width="2" filter="url(#shadow)"/><text x="380.0" y="108" text-anchor="middle" fill="#f59e0b" font-size="15" font-weight="bold">Dify Platform</text><rect x="95" y="150" width="160" height="60" rx="12" fill="#3b82f6" filter="url(#shadow)"/><text x="175.0" y="185.0" text-anchor="middle" fill="#f8fafc" font-size="14" font-weight="bold">Chatbot 模式</text><rect x="300" y="150" width="160" height="60" rx="12" fill="#10b981" filter="url(#shadow)"/><text x="380.0" y="185.0" text-anchor="middle" fill="#f8fafc" font-size="14" font-weight="bold">Workflow 模式</text><rect x="505" y="150" width="160" height="60" rx="12" fill="#8b5cf6" filter="url(#shadow)"/><text x="585.0" y="185.0" text-anchor="middle" fill="#f8fafc" font-size="14" font-weight="bold">Agent 模式</text><rect x="150" y="270" width="460" height="88" rx="12" fill="#f59e0b" filter="url(#shadow)"/><text x="380.0" y="312.0" text-anchor="middle" fill="#1e293b" font-size="14" font-weight="bold">RAG 引擎 / 知识库 / 向量检索</text><text x="380.0" y="332.0" text-anchor="middle" fill="#78350f" font-size="11">多模型切换 · API 密钥管理 · 监控/日志/标注/数据集</text><line x1="175" y1="210" x2="380" y2="268" stroke="#f59e0b" stroke-width="2.5" marker-end="url(#arrow)"/><line x1="380" y1="210" x2="380" y2="268" stroke="#f59e0b" stroke-width="2.5" marker-end="url(#arrow)"/><line x1="585" y1="210" x2="380" y2="268" stroke="#f59e0b" stroke-width="2.5" marker-end="url(#arrow)"/></svg>
