<svg xmlns="http://www.w3.org/2000/svg" viewBox="0 0 760 560" font-family="sans-serif"><defs>
  <filter id="shadow" x="-5%" y="-5%" width="115%" height="115%"><feDropShadow dx="2" dy="2" stdDeviation="3" flood-color="#000" flood-opacity="0.35"/></filter>
  <linearGradient id="bg" x1="0" y1="0" x2="0" y2="1"><stop offset="0%" stop-color="#0f172a"/><stop offset="100%" stop-color="#1e293b"/></linearGradient>
  <marker id="arrow" viewBox="0 0 10 10" refX="9" refY="5" markerWidth="7" markerHeight="7" orient="auto-start-reverse"><path d="M 0 0 L 10 5 L 0 10 z" fill="#f59e0b"/></marker>
</defs><rect width="760" height="560" fill="url(#bg)" rx="12"/><text x="380.0" y="36" text-anchor="middle" fill="#f59e0b" font-size="20" font-weight="bold">RAG 文档入库流水线</text><text x="380.0" y="56" text-anchor="middle" fill="#94a3b8" font-size="12">解析、清洗、分块、向量化、索引存储</text><rect x="220" y="75" width="320" height="52" rx="12" fill="#334155" filter="url(#shadow)"/><text x="380.0" y="99.0" text-anchor="middle" fill="#f8fafc" font-size="13" font-weight="bold">原始文档</text><text x="380.0" y="119.0" text-anchor="middle" fill="#cbd5e1" font-size="11">PDF / Word / HTML / Markdown</text><line x1="380" y1="127" x2="380" y2="151" stroke="#f59e0b" stroke-width="2.5" marker-end="url(#arrow)"/><rect x="220" y="151" width="320" height="52" rx="12" fill="#3b82f6" filter="url(#shadow)"/><text x="380.0" y="175.0" text-anchor="middle" fill="#f8fafc" font-size="13" font-weight="bold">文档解析</text><text x="380.0" y="195.0" text-anchor="middle" fill="#dbeafe" font-size="11">PyPDF2 / Unstructured / Docling</text><line x1="380" y1="203" x2="380" y2="227" stroke="#f59e0b" stroke-width="2.5" marker-end="url(#arrow)"/><rect x="220" y="227" width="320" height="52" rx="12" fill="#06b6d4" filter="url(#shadow)"/><text x="380.0" y="251.0" text-anchor="middle" fill="#f8fafc" font-size="13" font-weight="bold">文本清洗</text><text x="380.0" y="271.0" text-anchor="middle" fill="#cffafe" font-size="11">去噪 / 格式标准化 / 元数据</text><line x1="380" y1="279" x2="380" y2="303" stroke="#f59e0b" stroke-width="2.5" marker-end="url(#arrow)"/><rect x="220" y="303" width="320" height="52" rx="12" fill="#10b981" filter="url(#shadow)"/><text x="380.0" y="327.0" text-anchor="middle" fill="#f8fafc" font-size="13" font-weight="bold">智能分块</text><text x="380.0" y="347.0" text-anchor="middle" fill="#d1fae5" font-size="11">递归字符分块 + 语义分块</text><line x1="380" y1="355" x2="380" y2="379" stroke="#f59e0b" stroke-width="2.5" marker-end="url(#arrow)"/><rect x="220" y="379" width="320" height="52" rx="12" fill="#f59e0b" filter="url(#shadow)"/><text x="380.0" y="403.0" text-anchor="middle" fill="#1e293b" font-size="13" font-weight="bold">向量化</text><text x="380.0" y="423.0" text-anchor="middle" fill="#78350f" font-size="11">BGE-Large / OpenAI Embedding</text><line x1="380" y1="431" x2="380" y2="455" stroke="#f59e0b" stroke-width="2.5" marker-end="url(#arrow)"/><rect x="220" y="455" width="320" height="52" rx="12" fill="#8b5cf6" filter="url(#shadow)"/><text x="380.0" y="479.0" text-anchor="middle" fill="#f8fafc" font-size="13" font-weight="bold">索引存储</text><text x="380.0" y="499.0" text-anchor="middle" fill="#ede9fe" font-size="11">Milvus / Chroma + Metadata</text></svg>
