<svg xmlns="http://www.w3.org/2000/svg" viewBox="0 0 860 290" font-family="sans-serif"><defs>
  <filter id="shadow" x="-5%" y="-5%" width="115%" height="115%"><feDropShadow dx="2" dy="2" stdDeviation="3" flood-color="#000" flood-opacity="0.35"/></filter>
  <linearGradient id="bg" x1="0" y1="0" x2="0" y2="1"><stop offset="0%" stop-color="#0f172a"/><stop offset="100%" stop-color="#1e293b"/></linearGradient>
  <marker id="arrow" viewBox="0 0 10 10" refX="9" refY="5" markerWidth="7" markerHeight="7" orient="auto-start-reverse"><path d="M 0 0 L 10 5 L 0 10 z" fill="#f59e0b"/></marker>
</defs><rect width="860" height="290" fill="url(#bg)" rx="12"/><text x="430.0" y="36" text-anchor="middle" fill="#f59e0b" font-size="20" font-weight="bold">微调显存估算速查</text><text x="430.0" y="56" text-anchor="middle" fill="#94a3b8" font-size="12">参数、梯度、优化器、激活值组成</text><rect x="40.0" y="82" width="254.0" height="38" rx="12" fill="#f59e0b" filter="url(#shadow)"/><text x="167.0" y="106.0" text-anchor="middle" fill="#1e293b" font-size="12" font-weight="bold">训练方式</text><rect x="300.0" y="82" width="254.0" height="38" rx="12" fill="#f59e0b" filter="url(#shadow)"/><text x="427.0" y="106.0" text-anchor="middle" fill="#1e293b" font-size="12" font-weight="bold">计算近似</text><rect x="560.0" y="82" width="254.0" height="38" rx="12" fill="#f59e0b" filter="url(#shadow)"/><text x="687.0" y="106.0" text-anchor="middle" fill="#1e293b" font-size="12" font-weight="bold">总显存</text><rect x="40.0" y="124" width="254.0" height="38" rx="12" fill="#3b82f6" filter="url(#shadow)"/><text x="167.0" y="148.0" text-anchor="middle" fill="#f8fafc" font-size="11" font-weight="bold">全参 fp16</text><rect x="300.0" y="124" width="254.0" height="38" rx="12" fill="#3b82f6" filter="url(#shadow)"/><text x="427.0" y="148.0" text-anchor="middle" fill="#f8fafc" font-size="11" font-weight="bold">7B×(2+2+12)+激活</text><rect x="560.0" y="124" width="254.0" height="38" rx="12" fill="#3b82f6" filter="url(#shadow)"/><text x="687.0" y="148.0" text-anchor="middle" fill="#f8fafc" font-size="11" font-weight="bold">~120 GB</text><rect x="40.0" y="166" width="254.0" height="38" rx="12" fill="#10b981" filter="url(#shadow)"/><text x="167.0" y="190.0" text-anchor="middle" fill="#f8fafc" font-size="11" font-weight="bold">LoRA fp16</text><rect x="300.0" y="166" width="254.0" height="38" rx="12" fill="#10b981" filter="url(#shadow)"/><text x="427.0" y="190.0" text-anchor="middle" fill="#f8fafc" font-size="11" font-weight="bold">7B×2冻结+0.1B×16+激活</text><rect x="560.0" y="166" width="254.0" height="38" rx="12" fill="#10b981" filter="url(#shadow)"/><text x="687.0" y="190.0" text-anchor="middle" fill="#f8fafc" font-size="11" font-weight="bold">~18 GB</text><rect x="40.0" y="208" width="254.0" height="38" rx="12" fill="#8b5cf6" filter="url(#shadow)"/><text x="167.0" y="232.0" text-anchor="middle" fill="#f8fafc" font-size="11" font-weight="bold">QLoRA NF4</text><rect x="300.0" y="208" width="254.0" height="38" rx="12" fill="#8b5cf6" filter="url(#shadow)"/><text x="427.0" y="232.0" text-anchor="middle" fill="#f8fafc" font-size="11" font-weight="bold">7B×0.5+0.1B×16+激活</text><rect x="560.0" y="208" width="254.0" height="38" rx="12" fill="#8b5cf6" filter="url(#shadow)"/><text x="687.0" y="232.0" text-anchor="middle" fill="#f8fafc" font-size="11" font-weight="bold">~6 GB</text></svg>
