<svg xmlns="http://www.w3.org/2000/svg" viewBox="0 0 840 374" font-family="sans-serif"><defs>
  <filter id="shadow" x="-5%" y="-5%" width="115%" height="115%"><feDropShadow dx="2" dy="2" stdDeviation="3" flood-color="#000" flood-opacity="0.35"/></filter>
  <linearGradient id="bg" x1="0" y1="0" x2="0" y2="1"><stop offset="0%" stop-color="#0f172a"/><stop offset="100%" stop-color="#1e293b"/></linearGradient>
  <marker id="arrow" viewBox="0 0 10 10" refX="9" refY="5" markerWidth="7" markerHeight="7" orient="auto-start-reverse"><path d="M 0 0 L 10 5 L 0 10 z" fill="#f59e0b"/></marker>
</defs><rect width="840" height="374" fill="url(#bg)" rx="12"/><text x="420.0" y="36" text-anchor="middle" fill="#f59e0b" font-size="20" font-weight="bold">微调方法资源对比</text><text x="420.0" y="56" text-anchor="middle" fill="#94a3b8" font-size="12">显存、时间、效果与硬件选择</text><rect x="40.0" y="82" width="146.0" height="38" rx="12" fill="#f59e0b" filter="url(#shadow)"/><text x="113.0" y="106.0" text-anchor="middle" fill="#1e293b" font-size="12" font-weight="bold">方法</text><rect x="192.0" y="82" width="146.0" height="38" rx="12" fill="#f59e0b" filter="url(#shadow)"/><text x="265.0" y="106.0" text-anchor="middle" fill="#1e293b" font-size="12" font-weight="bold">显存</text><rect x="344.0" y="82" width="146.0" height="38" rx="12" fill="#f59e0b" filter="url(#shadow)"/><text x="417.0" y="106.0" text-anchor="middle" fill="#1e293b" font-size="12" font-weight="bold">时间</text><rect x="496.0" y="82" width="146.0" height="38" rx="12" fill="#f59e0b" filter="url(#shadow)"/><text x="569.0" y="106.0" text-anchor="middle" fill="#1e293b" font-size="12" font-weight="bold">MT-Bench</text><rect x="648.0" y="82" width="146.0" height="38" rx="12" fill="#f59e0b" filter="url(#shadow)"/><text x="721.0" y="106.0" text-anchor="middle" fill="#1e293b" font-size="12" font-weight="bold">GPU</text><rect x="40.0" y="124" width="146.0" height="38" rx="12" fill="#3b82f6" filter="url(#shadow)"/><text x="113.0" y="148.0" text-anchor="middle" fill="#f8fafc" font-size="11" font-weight="bold">全参 fp16</text><rect x="192.0" y="124" width="146.0" height="38" rx="12" fill="#3b82f6" filter="url(#shadow)"/><text x="265.0" y="148.0" text-anchor="middle" fill="#f8fafc" font-size="11" font-weight="bold">118 GB</text><rect x="344.0" y="124" width="146.0" height="38" rx="12" fill="#3b82f6" filter="url(#shadow)"/><text x="417.0" y="148.0" text-anchor="middle" fill="#f8fafc" font-size="11" font-weight="bold">2.5h</text><rect x="496.0" y="124" width="146.0" height="38" rx="12" fill="#3b82f6" filter="url(#shadow)"/><text x="569.0" y="148.0" text-anchor="middle" fill="#f8fafc" font-size="11" font-weight="bold">7.82</text><rect x="648.0" y="124" width="146.0" height="38" rx="12" fill="#3b82f6" filter="url(#shadow)"/><text x="721.0" y="148.0" text-anchor="middle" fill="#f8fafc" font-size="11" font-weight="bold">2×A100</text><rect x="40.0" y="166" width="146.0" height="38" rx="12" fill="#10b981" filter="url(#shadow)"/><text x="113.0" y="190.0" text-anchor="middle" fill="#f8fafc" font-size="11" font-weight="bold">LoRA fp16</text><rect x="192.0" y="166" width="146.0" height="38" rx="12" fill="#10b981" filter="url(#shadow)"/><text x="265.0" y="190.0" text-anchor="middle" fill="#f8fafc" font-size="11" font-weight="bold">18 GB</text><rect x="344.0" y="166" width="146.0" height="38" rx="12" fill="#10b981" filter="url(#shadow)"/><text x="417.0" y="190.0" text-anchor="middle" fill="#f8fafc" font-size="11" font-weight="bold">1.8h</text><rect x="496.0" y="166" width="146.0" height="38" rx="12" fill="#10b981" filter="url(#shadow)"/><text x="569.0" y="190.0" text-anchor="middle" fill="#f8fafc" font-size="11" font-weight="bold">7.65</text><rect x="648.0" y="166" width="146.0" height="38" rx="12" fill="#10b981" filter="url(#shadow)"/><text x="721.0" y="190.0" text-anchor="middle" fill="#f8fafc" font-size="11" font-weight="bold">1×A100</text><rect x="40.0" y="208" width="146.0" height="38" rx="12" fill="#8b5cf6" filter="url(#shadow)"/><text x="113.0" y="232.0" text-anchor="middle" fill="#f8fafc" font-size="11" font-weight="bold">LoRA bf16</text><rect x="192.0" y="208" width="146.0" height="38" rx="12" fill="#8b5cf6" filter="url(#shadow)"/><text x="265.0" y="232.0" text-anchor="middle" fill="#f8fafc" font-size="11" font-weight="bold">18 GB</text><rect x="344.0" y="208" width="146.0" height="38" rx="12" fill="#8b5cf6" filter="url(#shadow)"/><text x="417.0" y="232.0" text-anchor="middle" fill="#f8fafc" font-size="11" font-weight="bold">1.6h</text><rect x="496.0" y="208" width="146.0" height="38" rx="12" fill="#8b5cf6" filter="url(#shadow)"/><text x="569.0" y="232.0" text-anchor="middle" fill="#f8fafc" font-size="11" font-weight="bold">7.68</text><rect x="648.0" y="208" width="146.0" height="38" rx="12" fill="#8b5cf6" filter="url(#shadow)"/><text x="721.0" y="232.0" text-anchor="middle" fill="#f8fafc" font-size="11" font-weight="bold">1×A100</text><rect x="40.0" y="250" width="146.0" height="38" rx="12" fill="#06b6d4" filter="url(#shadow)"/><text x="113.0" y="274.0" text-anchor="middle" fill="#f8fafc" font-size="11" font-weight="bold">QLoRA NF4</text><rect x="192.0" y="250" width="146.0" height="38" rx="12" fill="#06b6d4" filter="url(#shadow)"/><text x="265.0" y="274.0" text-anchor="middle" fill="#f8fafc" font-size="11" font-weight="bold">6.5 GB</text><rect x="344.0" y="250" width="146.0" height="38" rx="12" fill="#06b6d4" filter="url(#shadow)"/><text x="417.0" y="274.0" text-anchor="middle" fill="#f8fafc" font-size="11" font-weight="bold">2.8h</text><rect x="496.0" y="250" width="146.0" height="38" rx="12" fill="#06b6d4" filter="url(#shadow)"/><text x="569.0" y="274.0" text-anchor="middle" fill="#f8fafc" font-size="11" font-weight="bold">7.51</text><rect x="648.0" y="250" width="146.0" height="38" rx="12" fill="#06b6d4" filter="url(#shadow)"/><text x="721.0" y="274.0" text-anchor="middle" fill="#f8fafc" font-size="11" font-weight="bold">1×RTX4090</text><rect x="40.0" y="292" width="146.0" height="38" rx="12" fill="#ec4899" filter="url(#shadow)"/><text x="113.0" y="316.0" text-anchor="middle" fill="#f8fafc" font-size="11" font-weight="bold">QLoRA+DQ</text><rect x="192.0" y="292" width="146.0" height="38" rx="12" fill="#ec4899" filter="url(#shadow)"/><text x="265.0" y="316.0" text-anchor="middle" fill="#f8fafc" font-size="11" font-weight="bold">5.8 GB</text><rect x="344.0" y="292" width="146.0" height="38" rx="12" fill="#ec4899" filter="url(#shadow)"/><text x="417.0" y="316.0" text-anchor="middle" fill="#f8fafc" font-size="11" font-weight="bold">2.9h</text><rect x="496.0" y="292" width="146.0" height="38" rx="12" fill="#ec4899" filter="url(#shadow)"/><text x="569.0" y="316.0" text-anchor="middle" fill="#f8fafc" font-size="11" font-weight="bold">7.48</text><rect x="648.0" y="292" width="146.0" height="38" rx="12" fill="#ec4899" filter="url(#shadow)"/><text x="721.0" y="316.0" text-anchor="middle" fill="#f8fafc" font-size="11" font-weight="bold">1×RTX4090</text></svg>
