<svg xmlns="http://www.w3.org/2000/svg" viewBox="0 0 760 340" font-family="sans-serif"><defs>
  <filter id="shadow" x="-5%" y="-5%" width="115%" height="115%"><feDropShadow dx="2" dy="2" stdDeviation="3" flood-color="#000" flood-opacity="0.35"/></filter>
  <linearGradient id="bg" x1="0" y1="0" x2="0" y2="1"><stop offset="0%" stop-color="#0f172a"/><stop offset="100%" stop-color="#1e293b"/></linearGradient>
  <marker id="arrow" viewBox="0 0 10 10" refX="9" refY="5" markerWidth="7" markerHeight="7" orient="auto-start-reverse"><path d="M 0 0 L 10 5 L 0 10 z" fill="#f59e0b"/></marker>
</defs><rect width="760" height="340" fill="url(#bg)" rx="12"/><text x="380.0" y="36" text-anchor="middle" fill="#f59e0b" font-size="20" font-weight="bold">LoRA 低秩适配器</text><text x="380.0" y="56" text-anchor="middle" fill="#94a3b8" font-size="12">冻结 W₀，仅训练 A/B 低秩矩阵</text><rect x="80" y="130" width="150" height="58" rx="12" fill="#334155" filter="url(#shadow)"/><text x="155.0" y="164.0" text-anchor="middle" fill="#f8fafc" font-size="14" font-weight="bold">输入 X</text><rect x="300" y="90" width="150" height="58" rx="12" fill="#3b82f6" filter="url(#shadow)"/><text x="375.0" y="117.0" text-anchor="middle" fill="#f8fafc" font-size="14" font-weight="bold">W₀ 冻结</text><text x="375.0" y="137.0" text-anchor="middle" fill="#dbeafe" font-size="11">基础权重</text><rect x="300" y="220" width="70" height="50" rx="12" fill="#10b981" filter="url(#shadow)"/><text x="335.0" y="243.0" text-anchor="middle" fill="#f8fafc" font-size="14" font-weight="bold">A</text><text x="335.0" y="263.0" text-anchor="middle" fill="#d1fae5" font-size="11">r×k</text><rect x="410" y="220" width="70" height="50" rx="12" fill="#10b981" filter="url(#shadow)"/><text x="445.0" y="243.0" text-anchor="middle" fill="#f8fafc" font-size="14" font-weight="bold">B</text><text x="445.0" y="263.0" text-anchor="middle" fill="#d1fae5" font-size="11">d×r</text><rect x="565" y="130" width="130" height="58" rx="12" fill="#f59e0b" filter="url(#shadow)"/><text x="630.0" y="157.0" text-anchor="middle" fill="#1e293b" font-size="14" font-weight="bold">输出 Y</text><text x="630.0" y="177.0" text-anchor="middle" fill="#78350f" font-size="11">Y₁ + α/r×Y₂</text><line x1="230" y1="158" x2="300" y2="118" stroke="#f59e0b" stroke-width="2.5" marker-end="url(#arrow)"/><line x1="450" y1="118" x2="565" y2="158" stroke="#f59e0b" stroke-width="2.5" marker-end="url(#arrow)"/><line x1="230" y1="158" x2="300" y2="245" stroke="#f59e0b" stroke-width="2.5" marker-end="url(#arrow)"/><line x1="370" y1="245" x2="410" y2="245" stroke="#f59e0b" stroke-width="2.5" marker-end="url(#arrow)"/><line x1="480" y1="245" x2="565" y2="158" stroke="#f59e0b" stroke-width="2.5" marker-end="url(#arrow)"/></svg>
