<svg xmlns="http://www.w3.org/2000/svg" viewBox="0 0 760 390" font-family="sans-serif"><defs>
  <filter id="shadow" x="-5%" y="-5%" width="115%" height="115%"><feDropShadow dx="2" dy="2" stdDeviation="3" flood-color="#000" flood-opacity="0.35"/></filter>
  <linearGradient id="bg" x1="0" y1="0" x2="0" y2="1"><stop offset="0%" stop-color="#0f172a"/><stop offset="100%" stop-color="#1e293b"/></linearGradient>
  <marker id="arrow" viewBox="0 0 10 10" refX="9" refY="5" markerWidth="7" markerHeight="7" orient="auto-start-reverse"><path d="M 0 0 L 10 5 L 0 10 z" fill="#f59e0b"/></marker>
</defs><rect width="760" height="390" fill="url(#bg)" rx="12"/><text x="380.0" y="36" text-anchor="middle" fill="#f59e0b" font-size="20" font-weight="bold">OpenAI Agents SDK 执行循环</text><text x="380.0" y="56" text-anchor="middle" fill="#94a3b8" font-size="12">工具调用、handoff、输出护栏与追踪</text><rect x="60" y="95" width="170" height="52" rx="12" fill="#3b82f6" filter="url(#shadow)"/><text x="145.0" y="119.0" text-anchor="middle" fill="#f8fafc" font-size="14" font-weight="bold">Runner.run</text><text x="145.0" y="139.0" text-anchor="middle" fill="#dbeafe" font-size="11">agent + input</text><rect x="280" y="70" width="420" height="250" rx="14" fill="#1e293b" stroke="#f59e0b" stroke-width="2" filter="url(#shadow)"/><text x="490.0" y="98" text-anchor="middle" fill="#f59e0b" font-size="15" font-weight="bold">Agent Loop</text><text x="490.0" y="118" text-anchor="middle" fill="#94a3b8" font-size="11">instructions + tools + model</text><rect x="320" y="135" width="150" height="48" rx="12" fill="#10b981" filter="url(#shadow)"/><text x="395.0" y="157.0" text-anchor="middle" fill="#f8fafc" font-size="14" font-weight="bold">Tool Call</text><text x="395.0" y="177.0" text-anchor="middle" fill="#d1fae5" font-size="11">执行并反馈</text><rect x="505" y="135" width="150" height="48" rx="12" fill="#8b5cf6" filter="url(#shadow)"/><text x="580.0" y="157.0" text-anchor="middle" fill="#f8fafc" font-size="14" font-weight="bold">Handoff</text><text x="580.0" y="177.0" text-anchor="middle" fill="#ede9fe" font-size="11">切换 Agent</text><rect x="410" y="220" width="150" height="48" rx="12" fill="#f59e0b" filter="url(#shadow)"/><text x="485.0" y="242.0" text-anchor="middle" fill="#1e293b" font-size="14" font-weight="bold">Final Output</text><text x="485.0" y="262.0" text-anchor="middle" fill="#78350f" font-size="11">结束</text><rect x="360" y="310" width="210" height="36" rx="12" fill="#334155" filter="url(#shadow)"/><text x="465.0" y="333.0" text-anchor="middle" fill="#f8fafc" font-size="14" font-weight="bold">Guardrails + Tracing</text><line x1="230" y1="121" x2="280" y2="145" stroke="#f59e0b" stroke-width="2.5" marker-end="url(#arrow)"/><line x1="470" y1="135" x2="470" y2="220" stroke="#f59e0b" stroke-width="2.5" marker-end="url(#arrow)"/><line x1="390" y1="183" x2="410" y2="220" stroke="#f59e0b" stroke-width="2.5" marker-end="url(#arrow)"/><line x1="580" y1="183" x2="560" y2="220" stroke="#f59e0b" stroke-width="2.5" marker-end="url(#arrow)"/></svg>
