<svg xmlns="http://www.w3.org/2000/svg" viewBox="0 0 760 600" font-family="sans-serif"><defs>
  <filter id="shadow" x="-5%" y="-5%" width="115%" height="115%"><feDropShadow dx="2" dy="2" stdDeviation="3" flood-color="#000" flood-opacity="0.35"/></filter>
  <linearGradient id="bg" x1="0" y1="0" x2="0" y2="1"><stop offset="0%" stop-color="#0f172a"/><stop offset="100%" stop-color="#1e293b"/></linearGradient>
  <marker id="arrow" viewBox="0 0 10 10" refX="9" refY="5" markerWidth="7" markerHeight="7" orient="auto-start-reverse"><path d="M 0 0 L 10 5 L 0 10 z" fill="#f59e0b"/></marker>
</defs><rect width="760" height="600" fill="url(#bg)" rx="12"/><text x="380.0" y="36" text-anchor="middle" fill="#f59e0b" font-size="20" font-weight="bold">RAG 混合检索与生成链路</text><text x="380.0" y="56" text-anchor="middle" fill="#94a3b8" font-size="12">Query 预处理、双路召回、RRF、Rerank、引用生成</text><rect x="300" y="65" width="160" height="42" rx="12" fill="#334155" filter="url(#shadow)"/><text x="380.0" y="91.0" text-anchor="middle" fill="#f8fafc" font-size="14" font-weight="bold">用户提问</text><rect x="250" y="125" width="260" height="54" rx="12" fill="#3b82f6" filter="url(#shadow)"/><text x="380.0" y="150.0" text-anchor="middle" fill="#f8fafc" font-size="14" font-weight="bold">Query 预处理</text><text x="380.0" y="170.0" text-anchor="middle" fill="#dbeafe" font-size="11">意图识别 / 改写 / 多查询扩展</text><rect x="80" y="210" width="600" height="170" rx="14" fill="#1e293b" stroke="#f59e0b" stroke-width="2" filter="url(#shadow)"/><text x="380.0" y="238" text-anchor="middle" fill="#f59e0b" font-size="15" font-weight="bold">混合检索层</text><text x="380.0" y="258" text-anchor="middle" fill="#94a3b8" font-size="11">Dense + BM25 → RRF → Reranker</text><rect x="130" y="260" width="170" height="52" rx="12" fill="#10b981" filter="url(#shadow)"/><text x="215.0" y="284.0" text-anchor="middle" fill="#f8fafc" font-size="14" font-weight="bold">稠密检索</text><text x="215.0" y="304.0" text-anchor="middle" fill="#d1fae5" font-size="11">向量相似度</text><rect x="460" y="260" width="170" height="52" rx="12" fill="#06b6d4" filter="url(#shadow)"/><text x="545.0" y="284.0" text-anchor="middle" fill="#f8fafc" font-size="14" font-weight="bold">稀疏检索 BM25</text><text x="545.0" y="304.0" text-anchor="middle" fill="#cffafe" font-size="11">关键词匹配</text><rect x="295" y="330" width="170" height="42" rx="12" fill="#f59e0b" filter="url(#shadow)"/><text x="380.0" y="356.0" text-anchor="middle" fill="#1e293b" font-size="14" font-weight="bold">RRF 分数融合</text><rect x="295" y="395" width="170" height="42" rx="12" fill="#8b5cf6" filter="url(#shadow)"/><text x="380.0" y="414.0" text-anchor="middle" fill="#f8fafc" font-size="14" font-weight="bold">Reranker</text><text x="380.0" y="434.0" text-anchor="middle" fill="#ede9fe" font-size="11">BGE / Cohere</text><rect x="170" y="500" width="420" height="66" rx="12" fill="#ec4899" filter="url(#shadow)"/><text x="380.0" y="531.0" text-anchor="middle" fill="#f8fafc" font-size="14" font-weight="bold">生成层</text><text x="380.0" y="551.0" text-anchor="middle" fill="#fce7f3" font-size="11">Context + Query → Prompt Template → LLM
流式输出 + 引用标注</text><line x1="380" y1="107" x2="380" y2="125" stroke="#f59e0b" stroke-width="2.5" marker-end="url(#arrow)"/><line x1="380" y1="179" x2="380" y2="210" stroke="#f59e0b" stroke-width="2.5" marker-end="url(#arrow)"/><line x1="215" y1="312" x2="330" y2="330" stroke="#f59e0b" stroke-width="2.5" marker-end="url(#arrow)"/><line x1="545" y1="312" x2="430" y2="330" stroke="#f59e0b" stroke-width="2.5" marker-end="url(#arrow)"/><line x1="380" y1="372" x2="380" y2="395" stroke="#f59e0b" stroke-width="2.5" marker-end="url(#arrow)"/><line x1="380" y1="437" x2="380" y2="500" stroke="#f59e0b" stroke-width="2.5" marker-end="url(#arrow)"/></svg>
